:FULLY-SPECIFIED
:FORCE-ALL-JOINTS-BE-3DOF
:DEGREES
68
root 6.17395 16.7711 -27.7202 10.5392 2.31123 -4.7205
lfemur -32.8389 8.00647 -13.7186
ltibia 42.8721 -0 0
lfoot -24.0012 4.28722 -0.000615543
ltoes 24.8514 -0 0
rfemur -14.1148 0.156294 21.9901
rtibia 28.151 -0 0
rfoot -27.7027 -17.8265 -0.00241051
rtoes -3.19808 0 0
lowerback -3.95726 3.27444 2.18171
upperback -1.84238 4.28818 0.382076
thorax 0.469229 2.13584 -0.651459
lowerneck -10.1615 -2.90097 3.16529
upperneck -4.5619 -4.1494 1.39067
head 0.220694 -2.0943 -0.216096
lclavicle 1.95082e-15 1.16857e-14 5.31365e-32
lhumerus -42.3023 -9.89342 93.0978
lradius 43.3628 -0 0
lwrist 8.44744 0 0
lhand -11.3376 2.67336 -0.00176895
lfingers 7.12502 -0 0
lthumb 14.6952 32.1321 -0.00179122
rclavicle 1.95082e-15 1.16857e-14 5.31365e-32
rhumerus -38.2175 0.802539 -89.6045
rradius 42.4522 -0 0
rwrist 8.45 0 0
rhand -24.5239 -20.9342 -0.00541189
rfingers 7.12502 -0 0
rthumb 1.97139 -50.9003 -0.00511646
69
root 6.18583 16.7649 -27.7027 10.5529 2.49999 -4.85049
lfemur -33.4259 8.35751 -13.4623
ltibia 43.3072 -0 0
lfoot -23.4588 4.28654 -0.000573988
ltoes 24.3551 -0 0
rfemur -13.9887 -0.150612 22.1031
rtibia 28.0431 -0 0
rfoot -27.7329 -17.7781 -0.00224799
rtoes -3.89124 0 0
lowerback -3.86981 3.31862 2.29785
upperback -1.8472 4.34558 0.392434
thorax 0.423632 2.16372 -0.707229
lowerneck -10.1935 -2.96711 3.17576
upperneck -4.6385 -4.23716 1.40106
head 0.201008 -2.13903 -0.216905
lclavicle 7.39601e-16 1.17123e-14 4.9554e-32
lhumerus -42.3499 -9.74124 92.9361
lradius 43.5116 -0 0
lwrist 8.53453 0 0
lhand -11.3095 2.63516 -0.00164969
lfingers 7.12502 -0 0
lthumb 14.7223 32.092 -0.00167045
rclavicle 7.39601e-16 1.17123e-14 4.9554e-32
rhumerus -38.1221 1.08422 -89.5939
rradius 42.6231 -0 0
rwrist 8.32783 0 0
rhand -24.4181 -20.9652 -0.00504698
rfingers 7.12502 -0 0
rthumb 2.07357 -50.9306 -0.00477147
70
root 6.1973 16.7589 -27.6859 10.5657 2.68239 -4.97605
lfemur -33.9921 8.69912 -13.2179
ltibia 43.7276 -0 0
lfoot -22.9347 4.28587 -0.000527655
ltoes 23.8758 -0 0
rfemur -13.8674 -0.447362 22.2116
rtibia 27.9389 -0 0
rfoot -27.762 -17.7313 -0.00206674
rtoes -4.56094 0 0
lowerback -3.78523 3.36114 2.41012
upperback -1.85185 4.40103 0.402437
thorax 0.379551 2.19061 -0.761133
lowerneck -10.2245 -3.03101 3.18591
upperneck -4.71253 -4.32194 1.41121
head 0.181988 -2.18225 -0.217673
lclavicle -4.30627e-16 1.1738e-14 4.55587e-32
lhumerus -42.3964 -9.59433 92.7798
lradius 43.6553 -0 0
lwrist 8.61867 0 0
lhand -11.2824 2.59826 -0.00151668
lfingers 7.12502 -0 0
lthumb 14.7484 32.0532 -0.00153577
rclavicle -4.30627e-16 1.1738e-14 4.55587e-32
rhumerus -38.0298 1.35635 -89.5832
rradius 42.7883 -0 0
rwrist 8.2098 0 0
rhand -24.3159 -20.9952 -0.00464002
rfingers 7.12502 -0 0
rthumb 2.1723 -50.96 -0.00438674
71
root 6.20831 16.7531 -27.6697 10.5776 2.85745 -5.09652
lfemur -34.5345 9.02915 -12.9864
ltibia 44.1311 -0 0
lfoot -22.4317 4.28524 -0.000477474
ltoes 23.4158 -0 0
rfemur -13.7515 -0.73233 22.3152
rtibia 27.8389 -0 0
rfoot -27.79 -17.6864 -0.00187043
rtoes -5.20358 0 0
lowerback -3.70399 3.40178 2.51792
upperback -1.8563 4.45425 0.412032
thorax 0.337227 2.21637 -0.812879
lowerneck -10.2543 -3.09233 3.19568
upperneck -4.78359 -4.40327 1.42105
head 0.163737 -2.22372 -0.218396
lclavicle -1.55356e-15 1.17626e-14 4.12315e-32
lhumerus -42.4413 -9.45349 92.6297
lradius 43.7932 -0 0
lwrist 8.69941 0 0
lhand -11.2563 2.56285 -0.00137262
lfingers 7.12502 -0 0
lthumb 14.7735 32.016 -0.0013899
rclavicle -1.55356e-15 1.17626e-14 4.12315e-32
rhumerus -37.9413 1.61747 -89.5725
rradius 42.9467 -0 0
rwrist 8.09653 0 0
rhand -24.2178 -21.0239 -0.00419927
rfingers 7.12502 -0 0
rthumb 2.26703 -50.9881 -0.00397004
72
root 6.2188 16.7477 -27.6543 10.5886 3.02417 -5.21122
lfemur -35.0502 9.34543 -12.7687
ltibia 44.5154 -0 0
lfoot -21.9528 4.28463 -0.000424502
ltoes 22.9777 -0 0
rfemur -13.6417 -1.00389 22.4132
rtibia 27.7436 -0 0
rfoot -27.8166 -17.6436 -0.00166312
rtoes -5.81555 0 0
lowerback -3.62656 3.44035 2.62064
upperback -1.86053 4.50493 0.421166
thorax 0.296901 2.24088 -0.862173
lowerneck -10.2826 -3.15071 3.20502
upperneck -4.85128 -4.48072 1.43052
head 0.146357 -2.26321 -0.219073
lclavicle -2.6229e-15 1.17861e-14 3.66617e-32
lhumerus -42.4845 -9.31947 92.4868
lradius 43.9246 -0 0
lwrist 8.77629 0 0
lhand -11.2316 2.52913 -0.00122049
lfingers 7.12502 -0 0
lthumb 14.7974 31.9805 -0.00123585
rclavicle -2.6229e-15 1.17861e-14 3.66617e-32
rhumerus -37.8569 1.8661 -89.562
rradius 43.0976 -0 0
rwrist 7.98867 0 0
rhand -24.1244 -21.0513 -0.0037338
rfingers 7.12502 -0 0
rthumb 2.35724 -51.0149 -0.00352999
73
root 6.2287 16.7425 -27.6398 10.5986 3.18153 -5.31946
lfemur -35.5364 9.64575 -12.5657
ltibia 44.878 -0 0
lfoot -21.5007 4.28406 -0.00036985
ltoes 22.5642 -0 0
rfemur -13.5384 -1.2604 22.5053
rtibia 27.6537 -0 0
rfoot -27.8417 -17.6032 -0.00144918
rtoes -6.39335 0 0
lowerback -3.55339 3.47662 2.71764
upperback -1.86452 4.55277 0.429786
thorax 0.258814 2.26397 -0.908722
lowerneck -10.3094 -3.20581 3.21386
upperneck -4.9152 -4.55381 1.43955
head 0.129951 -2.30049 -0.2197
lclavicle -3.63233e-15 1.18083e-14 3.19457e-32
lhumerus -42.5255 -9.19309 92.3519
lradius 44.0485 -0 0
lwrist 8.84887 0 0
lhand -11.2082 2.4973 -0.00106349
lfingers 7.12502 -0 0
lthumb 14.8199 31.9471 -0.00107688
rclavicle -3.63233e-15 1.18083e-14 3.19457e-32
rhumerus -37.7771 2.10079 -89.5517
rradius 43.24 -0 0
rwrist 7.88686 0 0
rhand -24.0362 -21.0772 -0.00325347
rfingers 7.12502 -0 0
rthumb 2.44239 -51.0402 -0.00307588
74
root 6.23794 16.7376 -27.6262 10.6078 3.32862 -5.42061
lfemur -35.9901 9.92796 -12.3781
ltibia 45.2168 -0 0
lfoot -21.0783 4.28352 -0.000314707
ltoes 22.1777 -0 0
rfemur -13.4423 -1.50023 22.591
rtibia 27.5697 -0 0
rfoot -27.8652 -17.5655 -0.00123327
rtoes -6.93311 0 0
lowerback -3.48497 3.5104 2.80833
upperback -1.86823 4.59748 0.437837
thorax 0.223208 2.28553 -0.952233
lowerneck -10.3344 -3.2573 3.22214
upperneck -4.97494 -4.6221 1.44806
head 0.114621 -2.33533 -0.220277
lclavicle -4.57556e-15 1.1829e-14 2.71862e-32
lhumerus -42.564 -9.07506 92.2257
lradius 44.1644 -0 0
lwrist 8.91669 0 0
lhand -11.1863 2.46756 -0.000905039
lfingers 7.12502 -0 0
lthumb 14.841 31.9158 -0.000916432
rclavicle -4.57556e-15 1.1829e-14 2.71862e-32
rhumerus -37.7026 2.32007 -89.5418
rradius 43.3731 -0 0
rwrist 7.79172 0 0
rhand -23.9538 -21.1013 -0.00276871
rfingers 7.12502 -0 0
rthumb 2.52196 -51.0638 -0.00261758
75
root 6.24648 16.7332 -27.6137 10.616 3.46442 -5.51397
lfemur -36.4084 10.1897 -12.2069
ltibia 45.5296 -0 0
lfoot -20.6883 4.28303 -0.000260288
ltoes 21.821 -0 0
rfemur -13.3538 -1.72175 22.6697
rtibia 27.4922 -0 0
rfoot -27.8869 -17.5306 -0.00102023
rtoes -7.43138 0 0
lowerback -3.42176 3.54149 2.89208
upperback -1.87166 4.63874 0.445268
thorax 0.190324 2.3054 -0.992411
lowerneck -10.3575 -3.30483 3.22981
upperneck -5.0301 -4.68513 1.45598
head 0.100469 -2.36748 -0.220801
lclavicle -5.44626e-15 1.18481e-14 2.249e-32
lhumerus -42.5999 -8.96618 92.1093
lradius 44.2713 -0 0
lwrist 8.97929 0 0
lhand -11.1661 2.4401 -0.000748698
lfingers 7.12502 -0 0
lthumb 14.8604 31.887 -0.000758122
rclavicle -5.44626e-15 1.18481e-14 2.249e-32
rhumerus -37.6337 2.52248 -89.5324
rradius 43.4959 -0 0
rwrist 7.7039 0 0
rhand -23.8778 -21.1236 -0.0022904
rfingers 7.12502 -0 0
rthumb 2.59542 -51.0856 -0.00216538
